<svg xmlns="http://www.w3.org/2000/svg" width="190" height="38" viewBox="0 0 190 38" fill="none" role="img" aria-label="Sfere">
  <g transform="translate(-4.04 -9.85) scale(.9)">
    <circle cx="12.14" cy="50.54" r="1.4" fill="#9969FF" fill-opacity=".38"/>
    <circle cx="19.43" cy="46.16" r="2" fill="#9969FF" fill-opacity=".38"/>
    <circle cx="26.71" cy="41.79" r="2.6" fill="#7C4DFF"/>
    <circle cx="7" cy="32" r="1.4" fill="#9969FF" fill-opacity=".38"/>
    <circle cx="15.5" cy="32" r="2" fill="#9969FF" fill-opacity=".38"/>
    <circle cx="24" cy="32" r="2.6" fill="#7C4DFF"/>
    <circle cx="12.14" cy="13.46" r="1.4" fill="#9969FF" fill-opacity=".38"/>
    <circle cx="19.43" cy="17.84" r="2" fill="#9969FF" fill-opacity=".38"/>
    <circle cx="26.71" cy="22.21" r="2.6" fill="#7C4DFF"/>
    <circle cx="43" cy="32" r="7.5" fill="#9969FF"/>
  </g>
  <g transform="translate(56 -11.55)" fill="none" stroke="#FFFFFF" stroke-width="5" stroke-linecap="round" stroke-linejoin="round">
    <g transform="translate(-1.5 0)"><path d="M14.9 22.5 A6 6 0 1 0 10 32 A6 6 0 1 1 5.1 41.5"/></g>
    <g transform="translate(22.5 0)"><path d="M16 17 Q9 16 9 25 V44"/><path d="M3 27 H17"/></g>
    <g transform="translate(50.5 0)"><path d="M24 32 A12 12 0 1 0 22.9 37.1"/><path d="M0 32 H24"/></g>
    <g transform="translate(82.5 0)"><path d="M3 44 V20"/><path d="M3 28 Q3 20 13 20"/></g>
    <g transform="translate(106.5 0)"><path d="M24 32 A12 12 0 1 0 22.9 37.1"/><path d="M0 32 H24"/></g>
  </g>
</svg>
